<?xml version="1.0" encoding="UTF-8" standalone="no"?>
<!-- Created with Inkscape (http://www.inkscape.org/) -->

<svg
   xmlns:dc="http://purl.org/dc/elements/1.1/"
   xmlns:cc="http://creativecommons.org/ns#"
   xmlns:rdf="http://www.w3.org/1999/02/22-rdf-syntax-ns#"
   xmlns:svg="http://www.w3.org/2000/svg"
   xmlns="http://www.w3.org/2000/svg"
   xmlns:sodipodi="http://sodipodi.sourceforge.net/DTD/sodipodi-0.dtd"
   xmlns:inkscape="http://www.inkscape.org/namespaces/inkscape"
   width="120"
   height="120"
   viewBox="0 0 31.749999 31.750001"
   version="1.1"
   id="svg5647"
   inkscape:version="0.92.4 5da689c313, 2019-01-14"
   sodipodi:docname="Delphinus.svg">
  <defs
     id="defs5641" />
  <sodipodi:namedview
     id="base"
     pagecolor="#ffffff"
     bordercolor="#666666"
     borderopacity="1.0"
     inkscape:pageopacity="0.0"
     inkscape:pageshadow="2"
     inkscape:zoom="2.8"
     inkscape:cx="39.584724"
     inkscape:cy="75.17767"
     inkscape:document-units="mm"
     inkscape:current-layer="layer1"
     showgrid="false"
     units="px"
     inkscape:window-width="1920"
     inkscape:window-height="1049"
     inkscape:window-x="0"
     inkscape:window-y="0"
     inkscape:window-maximized="1" />
  <metadata
     id="metadata5644">
    <rdf:RDF>
      <cc:Work
         rdf:about="">
        <dc:format>image/svg+xml</dc:format>
        <dc:type
           rdf:resource="http://purl.org/dc/dcmitype/StillImage" />
        <dc:title></dc:title>
      </cc:Work>
    </rdf:RDF>
  </metadata>
  <g
     inkscape:label="Calque 1"
     inkscape:groupmode="layer"
     id="layer1"
     transform="translate(0,-265.24998)">
    <path
       style="fill:none;stroke:#020000;stroke-width:2;stroke-linecap:round;stroke-linejoin:miter;stroke-miterlimit:4;stroke-dasharray:none;stroke-opacity:1"
       d="m 1.3693872,273.18099 c 0,0 1.5337009,2.07234 4.1446934,2.07234 2.6109922,0 4.2259012,-6.21704 10.3617334,-6.21704 6.135831,0 7.447624,6.21704 10.361733,6.21704 2.914109,0 4.144693,-2.07234 4.144693,-2.07234"
       id="path4838"
       inkscape:connector-curvature="0"
       sodipodi:nodetypes="czzzc" />
    <path
       style="fill:none;stroke:#020000;stroke-width:2;stroke-linecap:round;stroke-linejoin:miter;stroke-miterlimit:4;stroke-dasharray:none;stroke-opacity:1"
       d="m 1.3697423,282.16115 c 0,0 1.5337009,2.07235 4.1446931,2.07235 2.6109941,0 4.2255454,-6.21704 10.3613786,-6.21704 6.135831,0 7.447981,6.21704 10.362089,6.21704 2.914109,0 4.144337,-2.07235 4.144337,-2.07235"
       id="path4838-7"
       inkscape:connector-curvature="0"
       sodipodi:nodetypes="czzzc" />
    <path
       style="fill:none;stroke:#020000;stroke-width:2;stroke-linecap:round;stroke-linejoin:miter;stroke-miterlimit:4;stroke-dasharray:none;stroke-opacity:1"
       d="m 1.3697423,291.14132 c 0,0 1.5337009,2.07235 4.1446921,2.07235 2.6109951,0 4.2255464,-6.21704 10.3613796,-6.21704 6.135831,0 7.447981,6.21704 10.362089,6.21704 2.914109,0 4.144337,-2.07235 4.144337,-2.07235"
       id="path4838-7-7"
       inkscape:connector-curvature="0"
       sodipodi:nodetypes="czzzc" />
  </g>
</svg>
